# generated from PmQm by Jehee Lee
:FULLY-SPECIFIED
:DEGREES
494
root -39.66805558 38.165 -28.130491 -179.6451218 -32.779613 -178.1958762
RightUpLeg -23.96221501 6.079737258 5.484663098
RightLeg -3.756911303 0 0
RightFoot 15.14591185 6.606610804 -0.4294169585
RightToes 2.32829e-010 -1.59028e-015 9.93923e-017
Spine -10.9399 -6.41197 -5.48148
Spine1 13.8472 -8.17579 6.99416
HEad -8.70126 5.58694 0.205254
LeftShoulder1 9.93923e-017 0 1.22299e-017
LeftArm 29.0531 20.3477 -79.6497
LeftForeArm -50.8804 -25.8241 16.4731
LeftHand 0.855054 6.00922 -1.12265
RightShoulder 1.98785e-016 -4.96962e-017 1.55301e-017
RightArm 8.52088 -61.6776 75.5044
RightForeArm -25.8572 15.2745 -0.718439
RightHand 1.12223 -10.8038 -3.2164
LeftUpLeg 14.06423968 -0.6166961128 5.046448914
LeftLeg 20.09309311 0 0
LeftFoot -9.573449366 14.49009204 -28.75268108
LeftToes 8.82235e-011 9.04645e-011 1.87288e-011
495
root -40.22994769 38.0808 -29.5777246 178.7234329 -30.21954745 -175.5267029
RightUpLeg -21.6027405 6.979812039 9.419225449
RightLeg -3.756911303 0 0
RightFoot 19.29150485 9.921179105 -2.377550309
RightToes 2.32829e-010 -1.59028e-015 9.93923e-017
Spine -10.1178 -6.00399 -1.72661
Spine1 13.3684 -7.93258 6.7795
HEad -9.08561 4.90566 -0.295565
LeftShoulder1 9.93923e-017 0 1.22299e-017
LeftArm 24.5905 24.621 -81.2319
LeftForeArm -46.0359 -23.8681 12.0075
LeftHand 0.858088 6.00119 -1.52961
RightShoulder 1.98785e-016 -4.96962e-017 1.55301e-017
RightArm 7.0644 -60.6268 77.2965
RightForeArm -26.1256 15.4337 -1.01533
RightHand 1.12325 -10.7692 -3.33988
LeftUpLeg 12.60956432 -2.456403126 8.419034942
LeftLeg 27.29086027 0 0
LeftFoot -1.690737617 18.00890885 -35.27539672
LeftToes 8.82235e-011 9.04645e-011 1.87288e-011
496
root -40.73435768 37.9969 -30.87342776 177.3052204 -27.40291943 -173.1878776
RightUpLeg -24.19050103 6.271270054 12.42835528
RightLeg 7.080782645 0 0
RightFoot 13.48652296 13.69356479 -4.637955437
RightToes 2.32829e-010 -1.59028e-015 9.93923e-017
Spine -8.85864 -5.1147 2.15902
Spine1 13.2645 -6.98564 6.37604
HEad -10.1836 3.71447 -0.298579
LeftShoulder1 9.93923e-017 0 1.22299e-017
LeftArm 13.6046 27.8414 -82.5725
LeftForeArm -33.7381 -20.3283 4.26896
LeftHand 0.85281 5.94591 -1.68942
RightShoulder 1.98785e-016 -4.96962e-017 1.55301e-017
RightArm 4.79104 -57.8585 79.5258
RightForeArm -25.3247 15.0762 -0.454751
RightHand 1.12097 -10.7754 -3.21477
LeftUpLeg 9.435370936 -3.691499521 12.68413965
LeftLeg 36.92893076 0 0
LeftFoot 10.11246084 21.16504572 -38.19969089
LeftToes 8.82235e-011 9.04645e-011 1.87288e-011
497
root -41.19598236 37.9889 -32.04897009 176.5361796 -24.70460877 -171.9213957
RightUpLeg -23.9593102 5.446541868 14.73171315
RightLeg 12.36580018 0 0
RightFoot 8.583252031 16.91355417 -6.725071895
RightToes 2.32829e-010 -1.59028e-015 9.93923e-017
Spine -7.82617 -4.18321 4.85693
Spine1 13.5892 -5.81217 5.89013
HEad -11.1141 2.29806 0.547046
LeftShoulder1 9.93923e-017 0 1.22299e-017
LeftArm 2.37092 30.3708 -83.2703
LeftForeArm -21.1373 -14.5294 -2.58577
LeftHand 0.879318 6.09409 -2.61043
RightShoulder 1.98785e-016 -4.96962e-017 1.55301e-017
RightArm 3.13328 -53.2422 81.7141
RightForeArm -23.927 14.2745 0.861444
RightHand 1.12761 -10.7757 -3.38363
LeftUpLeg 4.117647697 -4.535379129 13.74849128
LeftLeg 46.64177997 1.489093891 4.762287624
LeftFoot 16.86388018 23.89421437 -31.8919885
LeftToes 8.82235e-011 9.04645e-011 1.87288e-011
498
root -41.65945843 38.2368 -33.2384673 176.4845301 -22.21312114 -171.9326269
RightUpLeg -21.58870081 5.708251175 15.67611906
RightLeg 13.04190075 0 0
RightFoot 6.128038502 19.08975532 -8.122029009
RightToes 2.32829e-010 -1.59028e-015 9.93923e-017
Spine -7.471 -3.38381 6.01816
Spine1 13.8059 -4.71277 5.16031
HEad -10.7382 0.819757 1.88153
LeftShoulder1 9.93923e-017 0 1.22299e-017
LeftArm -1.51826 33.0471 -83.3931
LeftForeArm -15.0812 -9.44565 -6.17775
LeftHand 0.93976 6.5249 -4.42647
RightShoulder 1.98785e-016 -4.96962e-017 1.55301e-017
RightArm 4.08717 -48.0352 83.6402
RightForeArm -24.1846 14.0368 1.48387
RightHand 1.15347 -10.7282 -4.27077
LeftUpLeg -1.84325042 -5.567197421 13.00925105
LeftLeg 54.07112004 1.861613966 9.384631192
LeftFoot 17.97647897 21.46471546 -26.7568913
LeftToes 8.82235e-011 9.04645e-011 1.87288e-011
499
root -42.13748666 38.6402 -34.51083898 176.8809468 -19.52390815 -172.8491007
RightUpLeg -18.1326139 5.779648203 15.82832934
RightLeg 11.47572798 0 0
RightFoot 4.816341655 21.66943508 -8.602425266
RightToes 2.32829e-010 -1.59028e-015 9.93923e-017
Spine -7.67037 -2.51773 6.47335
Spine1 13.688 -3.46845 3.80072
HEad -9.14405 -0.707546 2.91489
LeftShoulder1 9.93923e-017 0 1.22299e-017
LeftArm 1.10318 36.3486 -82.924
LeftForeArm -14.1159 -7.68597 -7.38561
LeftHand 1.00284 7.13454 -6.18465
RightShoulder 1.98785e-016 -4.96962e-017 1.55301e-017
RightArm 7.34038 -43.5911 85.2189
RightForeArm -27.2352 15.2275 0.003924370001
RightHand 1.18297 -10.6363 -5.35387
LeftUpLeg -7.575461637 -6.598367547 11.04823766
LeftLeg 58.27707623 0.8751230074 12.184959
LeftFoot 15.38113406 17.32516357 -21.43034613
LeftToes 8.82235e-011 9.04645e-011 1.87288e-011
500
root -42.60335187 38.9605 -35.81141355 177.2874279 -16.40223941 -173.9638283
RightUpLeg -15.02517505 5.094412852 15.61177244
RightLeg 10.82038622 0 0
RightFoot 2.714641266 25.04911526 -8.81427572
RightToes 2.32829e-010 -1.59028e-015 9.93923e-017
Spine -7.83645 -1.43061 7.21708
Spine1 13.4939 -1.89804 1.99475
HEad -7.51557 -2.16027 3.22743
LeftShoulder1 9.93923e-017 0 1.22299e-017
LeftArm 3.31971 40.2464 -81.5602
LeftForeArm -12.7848 -8.16886 -7.155
LeftHand 1.03904 7.59664 -7.14162
RightShoulder 1.98785e-016 -4.96962e-017 1.55301e-017
RightArm 13.4859 -40.2862 86.3907
RightForeArm -35.0111 17.704 -4.95831
RightHand 1.18406 -10.5387 -5.75478
LeftUpLeg -12.63233188 -7.346911765 8.997069761
LeftLeg 59.47291343 -0.9944757592 11.78831544
LeftFoot 12.63339295 14.09692073 -18.59685204
LeftToes 8.82235e-011 9.04645e-011 1.87288e-011
501
root -43.0511934 39.1443 -37.09076155 177.5538228 -12.88928471 -174.9483012
RightUpLeg -12.7325353 4.319617568 15.05942536
RightLeg 11.86949236 0 0
RightFoot -0.3394389044 28.88684468 -9.808828365
RightToes 2.32829e-010 -1.59028e-015 9.93923e-017
Spine -7.68166 -0.17435 8.22232
Spine1 13.3304 -0.160738 0.328532
HEad -6.7365 -3.35321 3.01867
LeftShoulder1 9.93923e-017 0 1.22299e-017
LeftArm 5.60205 44.353 -79.4347
LeftForeArm -13.5077 -8.53464 -6.98397
LeftHand 1.03691 7.58639 -7.36546
RightShoulder 1.98785e-016 -4.96962e-017 1.55301e-017
RightArm 23.2456 -37.7105 87.0416
RightForeArm -47.9143 19.9529 -13.667
RightHand 1.16294 -10.4491 -5.53183
LeftUpLeg -16.97526215 -7.371529657 7.351110631
LeftLeg 58.14967983 -3.1302297 9.26616023
LeftFoot 10.42068728 11.51014194 -17.10377006
LeftToes 8.82235e-011 9.04645e-011 1.87288e-011
